<svg width="321" height="76" viewBox="0 0 321 76" fill="none" xmlns="http://www.w3.org/2000/svg">
<path d="M320.5 38C320.5 42.9473 316.248 47.818 308.143 52.355C300.079 56.8687 288.378 60.9499 273.875 64.3835C244.878 71.2489 204.794 75.5 160.5 75.5C116.206 75.5 76.1216 71.2489 47.1246 64.3835C32.6221 60.9499 20.9207 56.8687 12.8571 52.355C4.75184 47.818 0.5 42.9473 0.5 38C0.5 33.0527 4.75184 28.182 12.8571 23.645C20.9207 19.1313 32.6221 15.0501 47.1246 11.6165C76.1216 4.75114 116.206 0.5 160.5 0.5C204.794 0.5 244.878 4.75114 273.875 11.6165C288.378 15.0501 300.079 19.1313 308.143 23.645C316.248 28.182 320.5 33.0527 320.5 38Z" stroke="#F25822"/>
</svg>
